<svg version="1.2" xmlns="http://www.w3.org/2000/svg" viewBox="0 389 1024 189" width="1024" height="189">
	<style>
		.s0 { fill: #000000 } 
	</style>
	<g id="Layer 1">
		<path id="MAT Store" class="s0" aria-label="MAT Store"  d="m111.8 535.3q-3.1 3.1-3.8 7.3-0.4 4.2-0.4 7.5l14.9-2.2q3.1-3.2 4.6-6.6 1.5-3.5 1.5-8.3-3 1.7-7.5 2.9-4.5 1-9.3-0.6zm88.8 0l10.5-12.6q-3.2 1.5-7.2 1.9-4 0.5-8.1 1.5-3.9 0.9-7.2 3.3-3.3 2.4-4.8 8 4.8-1.7 8.4-1.8 3.6-0.3 8.4-0.3zm-33.8-40.2q-3.2 1.6-6.4 2.1-3.1 0.4-6.3 2.1l-2.1 10.6q3.2 0 4.9-1 1.9-1.1 3.5-1.1 3.2-3.1 3.9-6.3 0.9-3.3 2.5-6.4zm-34-23.3v4.2q-0.7 4.8 0 9.2 0.8 4.3 2.7 8.1 1.9 3.7 5.1 6.9 3.2 3.1 7.1 5.5 2.6-3.7 2.8-6.7 0.3-3.2-1.1-5.9-1.1-2.7-3.6-5.1-2.4-2.5-4.9-5.1-2.6-2.5-4.8-5.2-2.3-2.7-3.3-5.9zm51-6.4l-6.5 16.9q1.7 6.3 2.6 12.8 0.9 6.3 1.5 12.7 0.6 6.3 1 12.6 0.7 6.3 1.4 12.6 3.1-4.8 4.6-9.6 1.7-4.9 1.7-11.4-1.7-5.5-2.5-11.1-0.8-5.7-1.4-11.4-0.6-5.8-1.2-11.8-0.4-6-1.2-12.3zm-78.3-16.8q-1.7 3.9-3.2 7.9-1.5 3.9-2.5 7.8-0.9 3.9-1.2 8-0.3 3.9 0.4 7.9 1.7 8 2.6 16.7 0.9 8.5 1.2 17.2 0.5 8.7 0.5 17.3 0.1 8.5 0.1 16.5 1.6-3.2 2.9-6.3 1.3-3.2 1.3-6.3 0-22.2-0.3-43.4-0.3-21.1-1.8-43.3zm93-19.1q-3.2 1.7-7.9 2.1-4.7 0.5-11.2 2.1-2.3 2.4-4.1 5.1-1.7 2.7-3.4 5.6-1.5 2.8-3.3 5.5-1.6 2.7-4 5.1-0.8 1.5-1.4 3.5-0.4 1.8-1 3.7-0.6 2-1.5 3.9-0.9 2-2.4 3.5-2.4-3.9-5.4-7.5-3-3.6-6.3-7.2-3.2-3.6-6.2-7.2-3-3.6-5.3-7.5-6.3 0-13.8 0.3-7.4 0.1-13.7 1.8 1.6 22.3 1.8 44.2 0.3 21.8 0.3 42.3 0.8 0 1 0.5 0.5 0.3 0.8 0.6 0.3 0.6 0.3 1 4.8 1.7 9.4 1.4 4.8-0.3 9.5-3.5l-2.1-2.1q3.1-18.9 0-37.9 0.7-2.4 0.6-5.7 0-3.5 0-7.1 0-3.6 0.6-6.9 0.8-3.4 3-5.8 0.9 0 1.4 0.3 0.4 0.3 0.9 0.7 0.4 0.5 0.8 0.8 0.5 0.3 1.3 0.3-0.8 3.1 0.1 5.7 0.9 2.5 2.4 4.8 1.6 2.1 3.3 4.2 1.8 1.9 2.6 4.3 1.5 0.9 3.2 1.8 2 0.8 3.6 2 1.7 1.2 2.8 2.8 1 1.7 1 4.1 1.5 0 3.1-0.6 1.7-0.8 3.2-1.5 1.6-0.8 3.1-1.4 1.7-0.7 3.3-0.7l8.4-17q1.7-4.8 3.2-9.3 1.6-4.5 3.3-7.6 0.4 0 1 0.3 0.3 0.3 0.6 0.7 0.5 0.3 0.5 1.1 1.7 7.9 2.8 15.9 1.4 7.8 1.4 15.9 0 4.8 0.9 9 0.9 4 1.6 7.9 0.8 3.9 1 8.1 0.1 4.1-1.4 8.7 2.4-0.7 4.6-1.2 2.4-0.4 4.8-1 2.5-0.6 4.7-1.4 2.4-0.9 4.8-2.5l2.2-34.1q-2.4-6.3-3.1-12.9-0.6-6.7-0.6-13.5 0-6.7 0-13.3 0.1-6.8-0.6-13.1-0.8-3.1-1.9-3-1.3 0.2-2.6 1.2-1.4 0.9-3 1.5-1.5 0.6-3-1.8zm14.8 0q0.8 7.2 0.6 14.7-0.1 7.4-0.4 14.9-0.2 7.5 0 15 0.3 7.5 1.9 14.7 0.8 3.9 0.7 7.9-0.2 3.9-0.7 8-0.4 3.9-0.6 7.9-0.1 3.9 0.6 8l-10.6 12.4 2.1 2.3q-3.2 2.4-6.3 2.8-3.2 0.3-6.3 0.3-3.2 0-6.3 0.5-3.2 0.3-6.3 2.7-1.6-0.8-2-1.5-0.1-0.8 0.4-1.4 0.5-0.6 1.6-1.3-0.9-2.4-1.1-4.8-0.1-2.4-0.1-4.7 0-2.4-0.2-4.8 0-2.4-0.9-4.6 0-8.1-1.3-15.9-1.2-8-2.9-15.9-0.7 3.1-2.2 5.7-1.5 2.4-3.2 4.8-1.5 2.4-3 4.9-1.3 2.6-2.2 5.7l2.2 2.1-4.3 2.1q-1.7-1.5-3.3-1.3-1.5 0-3.1 0.6-1.5 0.6-3.2 1-1.5 0.5-3.2-0.3-1.6-2.4-3.9-4.3-2.1-2.1-4.5-4.1-2.4-1.9-4.6-4-2.3-2.1-3.9-4.5-0.7 7.9 0.1 15.1 1.1 7.2 1.3 14 0.2 6.7-1.5 13.2-1.9 6.3-8.2 12.7-2.3 0-5 0.8-2.8 0.6-5.6 1.6-2.7 0.9-5.4 2.1-2.7 1.1-5.1 1.8-2.4-5.5-3.2-11.7-0.5-6.3-0.5-12.7 0-6.6 0-13.2 0.1-6.8-0.7-13.1 0-8.1-1.3-15.9-1.2-7.9-2.9-15.9 2.4-4 3.5-7.9 1-4.1 1.8-8 0.7-3.9 1.8-7.8 1.2-4 3.6-7.9 0-0.8-0.3-0.9-0.3-0.2-0.8-0.2-0.4 0-0.7-0.1-0.3-0.2-0.3-0.9 0.8 0 2.1 0 1.5 0 3-0.2 1.7-0.3 3.2-0.7 1.5-0.5 2.2-1.4 3.1 0.9 5.8 0.8 2.9-0.3 5.3-0.6 2.4-0.5 4.2-0.6 2-0.3 3.6 0.4 3.1 3.2 6.6 6.2 3.6 2.8 6.9 5.8 3.4 2.9 6.4 6.2 3.2 3.3 5.6 7.2 4.8-8 9.4-16.8 4.9-8.9 9.6-17 6.5 0 12.5-0.4 6-0.6 10.8-3.8 1.5 1.7 3.3 1.4 1.9-0.5 3.7-0.9 1.8-0.5 3.3 0.1 1.5 0.5 2.4 3.6zm28.3 104.3q-3.6-0.9-6-0.2-2.3 0.6-3.8 2.3-1.5 1.6-2.4 4.3-0.8 2.6-1.7 5.4 5.2-2.1 10.7-3.1 5.8-1.1 11-2.6 5.3-1.6 9.5-4.3 4.3-2.9 6.8-8.4-5.1 1.6-11.2 3.3-6.2 1.5-12.9 3.3zm72.1-6.6q-2.5 0-4.9-0.5-2.2-0.6-4.2-0.3-2 0.2-3.2 1.8-1 1.5-1 5.6 3.5-1.8 6.5-2.3 3-0.6 4.6-2.1 1.5-1.8 3.8-1.8 2.2 0 4.1 0 2.2 0 3.5-0.7 1.5-0.9 1.5-4.1-3.5 1.5-6.3 2.1-2.8 0.5-4.3 2.3zm-25.1-29.4q-1.8 4-1.1 8.1 0.8 3.9 2.3 7.8 1.7 3.9 3.2 7.8 1.6 3.9 1.6 7.9 1.1-4 0.7-7.9-0.1-3.9-1.1-7.8-1.1-3.9-2.6-7.8-1.5-4.1-3-8.1zm-2.3-2.3q-3.3 0-6.7 0.3-3.3 0.3-6.4 2v10.9h2.2q3.1 0 4.9-1.3 1.9-1.5 2.9-3.5 1.1-2.1 1.6-4.3 0.7-2.4 1.5-4.1zm-13.1-18.3h2.2l-2.2-4.5zm0-17.7l-2 6.6h2q0.8 1.7 1.6 3.6 0.9 1.8 1.8 3.3 1.1 1.4 2.2 2.1 1.4 0.8 3.2-0.1-0.9-1.8-2.4-3.5-1.3-1.6-2.8-3.4-1.5-2-2.6-3.9-1-2.1-1-4.7zm6.6 6.6q0.9 1.7 2.2 3 1.5 1.2 2.7 2.7 1.2 1.5 1.8 3.3 0.8 1.7-0.2 4.1-1.6 3-3.7 3.4-1.9 0.3-4.2-0.3-2.2-0.6-4.8-1.2-2.6-0.7-5.1-0.1-1-2.3-1.2-5-0.1-2.7 0.2-5.5 0.3-2.9 0.5-5.6 0.5-2.8 0.5-5.4 0-0.7 0.5-1.8 0.4-1.2 1.3-2.2 0.9-1.1 2.1-1.8 1.4-0.8 3-0.8 1.6 0.8 2.1 2.3 0.6 1.5 0.8 3.4 0.2 2 0.4 3.9 0.1 2 1.1 3.6zm-27.2-20.8l-13 16.5q-0.9 9.4-2.8 18.7-1.6 9.2-3.7 18.6-1.9 9.3-4 18.9-2.1 9.6-3.8 19.8 0.9-1.5 1.9-2.7 1.1-1.2 1.9-2.2 0.9-1.1 1.1-1.8 0.4-0.9-0.4-1.7 3.6-10.3 7.4-20.5 3.7-10.2 6.9-20.6 3.1-10.5 5.4-21.1 2.2-10.8 3.1-21.9zm4.4-6.3q-0.8 11.7-2.8 22.9-1.9 11.1-5.1 21.9-3 10.8-7 21.6-3.9 10.8-8.5 21.8l6-2.4q0.7 0 0.7 0.4 0.2 0.3 0 1.1-0.2 0.6-0.5 1.5-0.2 0.7-0.2 1.6 8 0 14.8-1.6 6.9-1.7 14.1-5 0-1.5 0.3-3.3 0.3-1.8 0.3-3.4 0-1.7-0.8-3-0.5-1.5-2.7-2.4 2.2-2.4 2.4-4.8 0.3-2.4 0.3-4.8 0-2.6 0.3-5 0.5-2.4 2.6-4.9 1.5 0.9 4.2 1 2.7 0 5.7-0.6 3-0.7 6-1.8 3.2-1.2 5.5-2.8v1.9q1.9 4.2 2.4 9 0.8 4.8 1.7 9.2 0.9 4.2 2.6 7.3 1.6 3.2 5.5 4.2v4.2q5-1.6 8.4-2.1 3.4-0.6 6.6-2.1-8.1-22.3-18.5-44.2-10.3-22.1-21.5-44.3-6.5 1.8-12.3 3.6-5.7 1.8-10.5 5.3zm27-6.5q6.1 10.2 11.3 20.4 5.3 10.1 10.1 20 4.8 9.9 9.4 19.5 4.7 9.4 9.5 18.3-0.8 3 0.6 5.1 1.4 1.9 2.7 3.7 1.4 1.7 1.7 3.5 0.2 1.8-2.6 4.2 0.8 0 1.6-0.6 1.1-0.6 2.2-1.1 1-0.4 1.9-0.1 1.1 0.1 1.8 1.8 0 1.6-0.9 2.2-0.9 0.6-2.1 1.1-1.2 0.4-2.6 1-1.1 0.6-1.9 2.3-4.2-0.9-7.7-0.6-3.4 0.3-6.9 1-3.3 0.8-6.8 2-3.5 1-8 1.6-0.8 0.6-1.3 0.9-1.4 0.6-1.4-0.9-1.3-3.1-2.3-6.6-0.8-3.6-2-7-1.3-3.6-3.2-7.1-1.8-3.4-5.1-6.4l-8.9 2.4q1.5 4.3 0.8 8.2-0.6 3.9-2.7 7.5-2.1 3.6-5.4 6.9-3.3 3.2-6.9 6.3-8.1 2.7-16.3 4.5-8.3 1.8-17.3 3.5-1.8 0-2.4 1-0.4 0.9-1.9 0.9l-2-1.9q1.5-10.2 3.6-20.1 2.2-9.9 4.2-19.8 2.1-10.1 3.4-20.3 1.5-10.3 1.5-21.4-0.7 0-1.1-0.8-0.4-0.7-0.4-1.8 0-1 0.4-2.1 0.4-1.2 1.1-1.9 2.9-2.6 5.9-5.1 3-2.7 5.6-5.6 2.5-2.8 4.3-5.8 2-3 2.8-6.3 3.2-2.4 7-4.7 3.9-2.4 7.9-4.2 4.2-1.9 8.4-3 4.4-1.2 8.4-1.2 1.7 0.8 1.8 1.5 0.3 0.8 0 1.7-0.1 0.7-0.5 1.6-0.1 0.9 0.7 1.8zm104.8 110q1-0.9 2.2-0.9 1.3-0.2 2.5-0.2 1.3 0 2.5-0.1 1.3-0.2 2.2-1.1 1.8-0.9 3.7-1 2.1-0.2 3.8-0.6 1.8-0.5 3-1.5 1.1-1.2 1.1-3.9-2.6 1.8-6.3 1.5-3.5-0.3-6.8-0.3-3.2 0-5.6 1.5-2.3 1.3-2.3 6.6zm-2.3-88.5q-1 1.8-2.6 3.1-1.5 1.4-3 3-1.5 1.5-2.7 3.3-1 1.8-1 4.5 1.8 2.6 2.3 5.3 0.7 2.5 0.8 5.2 0.3 2.6 0.5 5.3 0.1 2.5 1 5.2 0.9 6.2 0.6 12.8-0.1 6.4-0.4 13-0.2 6.5 0.1 13.1 0.3 6.4 1.9 12.4 1.8-3.4 3.7-5.5 1.8-2.1 3.6-3.8v-11.7q2.5-7.8 1.7-15.7-0.7-8-2.5-16.1-1.8-8.1-3.5-16.3-1.5-8.4-0.5-17.1zm-25.5-2.3q-2.7 0.9-5.7 1.5-2.9 0.6-5.6 1.7-2.5 1-4.7 3-1.9 1.9-2.8 5.4h9.3q2.7 2.7 5.7 3 3 0.3 6-0.3 3-0.8 6-1.7 3-1 5.7-1l9.1-11.6q-2.5 0.9-5.2 0.8-2.7-0.3-5.5-0.8-2.8-0.4-5.9-0.6-3-0.3-6.4 0.6zm72.1 0l-20.8-2.4q-1.3 4.1 0 6.8 1.2 2.5 3.7 3.7 2.5 1.2 5.7 1.2 3.1 0 5.8-1 2.9-1.2 4.5-3.3 1.7-2.1 1.1-5zm-86.3-13.9q-3.4 3.4-5.2 9.9-1.6 6.3-1.6 13.2 2.5-1.8 3.8-4.7 1.5-2.8 2.2-6 0.7-3.3 0.7-6.6 0.1-3.3 0.1-5.8zm86.3-9.5h-9.3q-8 2.7-16.6 3.2-8.6 0.3-17.6-0.2-8.8-0.4-18-0.9-9-0.6-17.7 0.3l-2.4 2.3q0 2.5-0.5 4.8-0.2 2.2-0.5 4.5-0.2 2.2 0 4.5 0.1 2.2 1 4.9 4.3-3.6 9-4 4.8-0.6 9.9-0.2 5.1 0.5 10.4 0.9 5.2 0.3 10.5-1.5 0 1.8 1 2.4 1.2 0.6 1.2 2.4-1.7 5.3-2 11.6-0.2 6.3-0.2 11.5 3.4 14.1 4 28.1 0.6 13.9 0.6 28 2.6-1.8 5.6-1.8 3 0 5.7 0.3 2.8 0.2 5.3-0.1 2.6-0.5 4.3-3.2 0-17.4-1.5-33.6-1.4-16.3-3-33.9h-2.5q0-1.8-0.4-3.4-0.3-1.8-0.6-3.5-0.1-1.8 0-3.4 0.2-1.8 1-3.6 3.5 0 6.7 0.4 3.1 0.3 6.1 0.8 3.2 0.3 6.2 0.7 3.1 0.3 6.5 0.3zm7.1 16.4v4.6q-2.4 0.6-3.7 2.4-1.2 1.7-2.2 3.9-0.7 2.1-1.5 4.2-0.5 2.1-1.6 3.5-1 1.3-2.9 1.6-1.6 0.2-4.5-1.6-0.8 0.9-2.2 1-1.2 0.2-2.5 0.2-1.3 0-2.6 0.1-1.2 0.2-2.1 1.1 1.8 7 2.7 14.1 1.1 6.9 1.7 13.9 0.7 6.9 1.2 14 0.6 7 1.5 13.9 0 4.4-1.5 7.2-1.5 2.9-3.8 5.1-2.1 2.1-4.5 4.1-2.4 1.9-4.2 4.5-5.2 1.8-10.5 2-5.2 0.4-10.5 0.4-1.8 1.6-2.1 2.2-0.3 0.6-0.3 2.4-1.6-0.9-1.9-2.4-0.4-1.6-0.4-3.3 0-1.8-0.2-3.3-0.3-1.6-2-2.5-0.9-8.7-0.8-17.9 0.2-9.1 0.2-18 0-9-0.7-17.5-0.8-8.7-3.3-16.7-3.7-0.9-6.8-0.3-3 0.6-5.9 1.1-2.8 0.4-5.5 0.1-2.5-0.4-5.2-3.1-1.8 0-3.9 0.3-2 0.3-3.9 0.3-2 0-3.6-0.6-1.7-0.6-2.6-2.4v-18.6q3.5-3.6 6.6-7.4 3.3-3.7 5-9 10.5-0.9 21-0.7 10.5 0.1 21 0.1 10.5 0 21-0.6 10.5-0.7 21-3.4 2.6 0.9 3.4 3.3 0.7 2.4 0.9 5.5 0.3 3 0.6 6.3 0.3 3.3 2.1 5.9zm76.5 78.8q0 2-1.4 4-1.1 1.8-1.1 3.5 6.5 2.9 13.5 5.9 7 2.9 13.9 4.5 7.1 1.6 14 1.4 7-0.3 13.6-4.1-7.5 0.9-14.5-0.3-7.1-1.2-13.7-3.4-6.4-2.5-12.6-5.5-6.2-3.1-11.7-6zm0-77.5q-0.9 2.9-2.2 5.7-1.3 2.7-2.3 5.6-0.9 2.8-1.2 5.7-0.3 2.7 0.6 5.5 3.1 4.4 7.2 7.1 4 2.7 8.5 4.6 4.7 1.8 9.4 3.2 4.8 1.2 9.3 2.8 4.5 1.7 8.5 3.9 4.1 2.3 7.2 6 2.9 1.8 4 4.2 1.3 2.3 1.7 4.8 0.4 2.6 0.6 5.4 0.3 2.7 1.2 5.5 3.9-3.7 5.7-7.7 1.8-4.1 1.8-9.8-4.6-5.5-10.2-9.1-5.5-3.6-11.7-6.2-6-2.5-12.6-4.6-6.5-2.1-13-5-2.9-1.9-5.9-4.6-3-2.9-5.1-6.3-2.1-3.6-2.9-7.8-0.6-4.2 1.4-8.9zm42.6-7.5q-0.9 0.9-2.6 1.5-1.6 0.6-3.1 1.4-1.4 0.7-2.1 1.8-0.8 1 0.2 2.8h5q5.6-1.9 10.9-1.2 5.4 0.6 9.1 6.2 0-0.9 0.3-1.7 0.5-0.9 0.9-1.6 0.6-0.8 1.3-1.7-1.7-2.8-4.1-4.3-2.3-1.5-4.9-2.1-2.5-0.8-5.4-0.9-2.6-0.2-5.5-0.2zm15-15q-13.2-1.9-26.1 0.6-12.7 2.6-24 11.9-3.9 5.7-4.2 12.6-0.3 6.7 1.7 12.4 2.8 4.8 6.1 7.5 3.3 2.6 7 4.2 3.8 1.7 8 2.9 4.2 1.2 8.9 3 3.7 1.8 8.8 3.9 5.2 2.1 9.9 4.9 4.8 2.7 8.1 6.8 3.3 3.9 3.3 9.4-0.9 3.8-3.1 6.8-2.3 2.8-5.1 5.2-2.8 2.3-5.9 4.2-3.1 2-6 3.7-0.9-0.8-2.2-0.8-1.4-0.2-3 0.1-1.7 0.2-3.7 0.5-1.7 0.2-3.6 0.2-2.8-0.8-6-1.9-3.1-1.1-6-2.7-2.6-1.6-4.9-4-2.2-2.6-3.1-6.3-1 1.9-2.3 3-1.3 1-2.8 1.8-1.4 0.6-2.8 1.1-1.3 0.7-2.2 1.5-0.9 2-0.1 3 0.7 1.1 2.1 1.9 1.5 0.6 3.1 1.1 1.6 0.7 2.5 1.5 5.6 3.8 12.5 6.8 6.9 3 14.1 3.9 7.4 0.9 14.5-0.7 7.4-1.7 14-7.4 0 1.1 0.3 1.2 0.5 0 0.9-0.3 0.6-0.3 1.2-0.9 2.9-2.8 5.9-6.1 3.1-3.3 5.4-7.1 2.3-3.7 3.6-7.9 1.1-4.2 0.2-8.9-1.9-5.5-5.8-9.9-3.9-4.3-8.7-7.6-4.6-3.3-9.5-5.7-4.7-2.4-8.5-4.4-2.8-1.8-5.7-3.3-2.7-1.6-5.1-3.3-2.3-1.6-4-3.6-1.8-1.9-2.8-4.8-3.7 0-4.3-0.7-0.4-0.9 0.2-2.3 0.7-1.5 1.6-3.3 0.9-1.8 0-3.7 0-1.8 1.2-2.9 1.2-1 2.8-1.8 1.7-0.7 3.4-1.3 1.7-0.6 2.6-1.5 7.7-2 13.5-0.3 5.9 1.5 11.6 5.4 1.8-2 2.4-5.4 0.6-3.5 2.5-7.2-1.7-0.9-3.2-1.5-1.5-0.6-3-1.1-1.4-0.4-2.9-0.9-1.5-0.6-3.3-1.5zm15 5q0-0.9 0-1.1 0.2-0.1 0.3 0.2 0.3 0.1 0.7 0.6 0.7 0.3 1.5 0.3-0.8 2.8-2.2 5.2-1.4 2.4-2.5 4.8-1.3 2.4-2.1 4.8-0.8 2.4-0.8 5.3-1.8 0-3.3 0.9-1.5 0.7-2.7 1.9-1 1.1-2.1 2.4-0.9 1.4-1.8 2.3 0-2-0.9-3.3-0.7-1.5-1.9-2.4-1.3-0.9-2.6-1.4-1.2-0.4-2.1-0.4-3.9-2-7.6-0.6-3.6 1.2-7.5 3 0.9 4.8 4.3 7.8 3.5 3 8 5.4 4.5 2.4 9.2 4.5 4.9 2.1 8.6 4.9 3.8 1.8 7.7 5 4 3.1 7.3 7.2 3.3 3.9 5.4 8.5 2.1 4.7 2.1 9.3-1.8 4.7-4.2 9.3-2.4 4.5-5.5 8.6-3 3.9-6.9 7.2-3.8 3.1-8.5 4.9-3.7 3.8-8.8 6.9-4.9 3-10.7 4.7-5.5 1.6-11.5 1.5-6-0.2-11.5-3-5.7-3.8-11.6-5.9-5.9-2.3-13.5-4.2 0-1.9 1.2-5.2 1.4-3.5 1.4-7.2h-2.6q2-2.9 4.2-4.8 2.3-2.1 4.7-3.9 2.3-2 4.6-3.9 2.2-2.1 4.1-5 1.9 2 3.7 5.4 1.9 3.3 3.8 7 2.8 1 5.5 2.3 2.9 1.2 5.7 2 2.8 0.6 5.7 0.4 2.9-0.3 5.7-2.1 2.9 0 3.9-1.2 1.2-1.2 1.4-2.9 0.2-1.6 0-3.2-0.4-1.8-0.4-2.7 0-3.8-1.7-6.6-1.7-3-4.3-5.3-2.5-2.4-5.6-4.3-3-2-5.9-3.8-3.1-1.2-7.4-2.2-4-1.1-8.5-2.1-4.3-1.2-8.6-2.9-4-1.8-7.1-4.3-3.2-2.7-4.8-6.5-1.7-3.9-1.1-9.6 0-7.5 3.3-13.9 3.5-6.5 8.6-11.6 5.1-5.2 11.2-9 6.2-3.7 11.9-5.5 5.6-0.9 11.6-1.7 6-0.7 11.9-0.1 5.9 0.4 11.3 2.5 5.5 2.1 10.3 6.8zm70.8 105q-1.7 3-4.5 3.9-2.8 0.7-5.8 2.2h2q1.5 0.8 2.7 0.4 1.2-0.2 2.1-1.1 1.1-1.1 1.8-2.4 0.9-1.5 1.7-3zm-20.4-55.1q-0.8 0.8-1.2 1.8-0.5 1.1-0.9 2.1-0.5 0.9-0.9 1.7-0.5 0.6-1.2 0.6 0 12.3 0.4 24.4 0.6 12.2 3.8 24.5 0 1.5 0.5 2 0.8 0.5 1.7 0.8 0.9 0.2 1.9 0.3 1.1 0.2 1.9 0.9 0.7 0 1.5-0.3 0.7-0.3 1.3-0.6 0.6-0.4 1.3-1.1-6.8-5.3-9.1-12.2-2.1-7.1-2.1-14.7 0-7.7 0.9-15.5 0.9-7.8 0.2-14.7zm-6.2 2.1l6.2-6.1q-2.3 0-4.7 0.3-2.3 0.3-4.3 0.4-2.1 0.2-4.1 0.2-1.8-0.2-3.3-0.9-1.6 1.5-2.8 4-1.3 2.6-1.3 4.1l14.3-4.1zm30.6-4.2v-4h-6.1v4zm-49.1 2.1l8.3-10.2v-12.3q-0.8 3.2-3.4 5.7-2.5 2.4-4.6 5-2.1 2.3-2.7 5.2-0.6 2.8 2.4 6.6zm22.5-47q-3 4.7-3.6 10.2-0.5 5.6-0.5 10.3h6.2v-16.4q-0.6-0.6-1-1.2-1.1-1.4-1.1-2.9zm4.1-4h2.1v28.5q-2.3-0.8-4.3-0.6-1.9 0.1-3.7 0.5-1.6 0.1-3.3 0-1.5-0.4-3-1.9-0.7 1.5-1.5 3.8-0.7 2.1-1.2 4.4-0.3 2.2-0.3 4.5 0.2 2.2 0.9 3.7 2.3 0 4.5-0.3 2.4-0.3 4.6-0.3 2.5 0 4.7 0.6 2.3 0.5 4.5 2l-4 26.5q0.7 3 0.6 6.5 0 3.3 0 6.7 0 3.5 0.6 6.9 0.6 3.3 2.8 6.5 0 1.5 0.9 2.4 1.1 0.8 2.4 1.6 1.4 0.7 2.7 1.6 1.5 1 2.3 2.5l10.2-6.2q-2.3-5.4-4.8-10.7-2.4-5.3-4.2-10.6-1.7-5.4-2.3-10.6-0.4-5.5 1.1-10.8-1.5-1.5-1.5-3.3 0.1-2 0.5-4.1 0.7-2.1 1.1-4.3 0.6-2.5-0.1-4.7 1.5-0.8 3.3-0.6 1.9 0.2 3.7 0.6 2 0.4 3.8 0.6 1.9 0.1 3.4-0.6l2.1-16.3h-16.3q-0.8-3.8-0.6-7.4 0.1-3.6 0.4-7.2 0.5-3.6 0.6-7.5 0.3-3.9-0.4-8.5-1.5 0.7-3.6 1-2.1 0.1-4.1 0.6-1.9 0.3-3.3 1.4-1.3 0.8-1.3 3.1zm16.3-10.2v4.1l-2.1 26.5q2.3 0.8 4.2 0.9 2.1 0.2 3.9 0 2-0.3 3.9-0.6 2.1-0.3 4.4-0.3v2.1l-2 20.4q-1 0.5-1.8 2-0.7 1.5-1.5 3.3-0.7 1.8-1.6 3.5-0.9 1.8-2.1 2.9-1.3 0.9-3 0.8-1.8-0.4-4.4-2.3-1.5 5.4-1 10.8 0.6 5.3 2.1 10.6 1.6 5.3 3.5 10.7 2.2 5.3 3.7 10.7 0.7 0.7 1.8 1.3 1 0.4 1.9 1 1.1 0.5 1.6 1.4 0.8 0.9 0.8 2.4-2.3 0.7-3.9 2.6-1.6 1.8-3 3.9-1.4 2.1-2.7 4.1-1.2 2.1-2.7 3.6-2.2-1.5-4.8-0.8-2.5 0.6-4.5 1.5-1.8 0.7-2.8 0.6-0.9-0.2-0.2-3.2-4-0.4-6.3-2.2-2.1-1.9-3.1-4.2-1.1-2.6-1.3-5.6-0.1-3-0.1-6 0-3-0.1-5.7-0.2-2.9-1.3-5 0-7.6-1-15.2-1-7.7-1-15.4-2.3 0-4.4 0.7-1.9 0.5-3.9 1.2-1.8 0.6-3.9 0.8-1.9 0.2-4.2-0.5 0 1.5-0.3 1.8-0.1 0.1-1.6 0.1 0-3-0.7-7.1-0.4-4.1-3.4-7.1 2.3-2.3 4.2-5.3 2-3 3.9-6 2-3 3.9-5.9 1.9-3 4.2-5.2 1.7 0 2.9 0.3 1.3 0.2 1.3 1.7 0.8-1.5 0.8-3.3 0.1-2 0.1-3.8 0-1.9 0.1-3.7 0.2-2 1-3.5 0.7-2.2 2.4-4.2 1.6-2.1 3.1-3.9 1.7-1.9 2.5-3.9 1-2.1 0.2-4.3 4.5-1.5 9-2 4.7-0.4 9.3-2.1zm27.7 67.9q-2.2 3.8-3.3 7.8-0.9 4.1-1.4 8.5-0.2 4.2-0.5 8.5-0.2 4.3-0.8 8.8 0.6 2.9 1.1 6.3 0.6 3.5 1.6 6.6 1.2 3.2 3.1 5.6 2.2 2.4 5.9 3 3.6 0.8 7.8 1 4.3 0.3 8.6 0 4.3-0.4 8.2-1.6 3.9-1.2 6.9-3.5-3.7 0.9-8.4 1.5-4.5 0.5-9 0.2-4.3-0.4-8.1-2.1-3.7-1.7-6-5.4-3.7-4.3-5.4-9.8-1.5-5.4-2-11.2-0.2-5.9 0.4-12 0.6-6.3 1.3-12.2zm23.6 4q-2.3 2.2-3.8 5-1.5 2.9-2.1 5.9-0.4 2.9-0.1 5.7 0.4 2.7 2.1 4.9 2.1 1.5 4.8 2.3 2.8 0.7 5.5 1.1 2.8 0.1 5.3-0.2 2.5-0.3 3.9-1.1 0-2.2 0.4-4.6 0.6-2.5 0.9-5 0.5-2.4 0.3-4.5-0.1-2.2-1.6-3.5-1.4-2.3-3.5-4.5-2.1-2.5-4.4-3.7-2.2-1.3-4.3-1-2.1 0.3-3.4 3.2zm7.6-7.9q0 1.7 1.2 2 1.4 0.2 3 0.2 2.1 3 4.1 6.2 2.1 3.2 3.6 6.6 1.5 3.5 2.1 7.2 0.6 3.7 0 7.2 1.5-2.8 3-5.7 1.6-3 2.5-5.8 0.9-3 0.8-5.9-0.2-3-2.4-6-0.8-3-2.9-4.1-2.1-1.4-4.6-1.7-2.6-0.5-5.4-0.3-2.7 0.1-5 0.1zm23.7 7.9q0 7.3-2.6 13.3-2.3 6-5.3 10.3-3 1.5-6.3 2.9-3.2 1.2-6.6 1.8-3.5 0.5-7.3 0-3.5-0.6-7.1-2.9-1.7-1.3-3-2.9-1.2-1.9-1.2-4.7-0.8-4.5 0.3-8.7 1-4.3 3.4-8.3 2.4-3.8 6-7 3.6-3.3 8.1-5.5 7.4-1.5 12.9 1.5 5.7 2.8 8.7 10.2zm-15.7-27.5q-1.4-1.4-3.2-1.8-1.8-0.6-3.7-0.6-1.8 0-3.6 0.3-1.9 0.1-3.4 0.1-6.5 3-11 7.7-4.5 4.6-7.2 10.3-2.8 5.8-3.9 12.2-1.2 6.4-1.2 13.2 0 4.4 0.4 9 0.4 4.5 1.9 8.9 1.5 4.1 4.1 7.7 2.7 3.5 7.1 5.6 9 1.5 16.5 0.8 7.6-0.8 15-6.5 6-3 10.3-8.1 4.4-5.3 7.4-9.8 1.5-5 2.4-10.5 1-5.4 1-10.5 0-5.2-1.3-9.9-1.2-4.6-4.1-8.2-2.2-1.5-4.2-3.8-1.8-2.2-3.6-4.1-1.8-2.2-3.7-3.4-2-1.1-4.2-0.6v2h-1.8q-0.8 0-1.5-0.5-0.8-0.5-1.5-0.9-0.8-0.4-1.5-0.1-0.8 0.1-1.5 1.5zm3.9-5.9l11.8 3.9q5.1 4.5 8.7 10.3 3.7 5.7 5.6 12.1 1.8 6.4 1.8 13.4 0 6.8-2.3 13.5-4.5 7.5-10.4 14.1-5.8 6.4-13.1 9.2-1.5 3.8-4.1 6.3-2.5 2.6-5.7 4.1-3.1 1.5-6.7 1.9-3.6 0.4-7.2-0.4-3.8 0-7.4-0.1-3.6-0.2-6.9-1-3.3-0.7-6.3-2.2-2.8-1.7-5.1-4.7-2.8-5.1-3.7-11.4-0.9-6.4-0.6-13.1 0.4-7 1.6-13.7 1.4-6.9 2.7-12.8 3.2-4.3 7-9.7 4-5.4 7-9.9 3.7-1.5 7-3.4 3.5-2 6.9-3.7 3.5-1.6 7.2-2.3 3.8-1 8.3-0.4 0.7 0.8 1.1 0.9 0.5 0.2 0.8 0 0.3-0.2 0.7-0.5 0.5-0.4 1.3-0.4zm39.6 83q2.2-0.7 5.2-0.3 3 0.3 5.9 0.6 3 0.1 5.5-0.5 2.5-0.7 4-3.9-3.1 0.8-6.7 0.6-3.6-0.1-6.8-0.1-3 0-5 0.6-2.1 0.6-2.1 3zm45.7-64.5q-2.4 1.5-5 3.2-2.5 1.6-4.7 3.5-2.1 2-3.5 4.4-1.4 2.4-1.4 5.6 2.5-4 5.9-5.6 3.6-1.7 7.1-3 3.5-1.4 6.3-3.3 2.8-2.1 3.7-6.9-1.6 0-3.5 1-1.7 1.1-4.9 1.1zm-45.7-8.4q-2.4 3.1-3 6.8-0.6 3.4-0.5 7.1 0.1 3.7 0.6 7.5 0.6 3.9 0.6 7.7-1.5 4.8-1.8 9.9-0.1 4.9 0.2 10.1 0.4 5.1 1 10.1 0.6 5 0.6 9.6l6.4-8.4q-1.6-3.1-3-6-1.1-2.8-1.1-4.5-0.9-6.1-0.5-12.6 0.6-6.5 1.2-13 0.6-6.5 0.6-12.6 0.2-6.1-1.3-11.7zm27 8.4q-0.9 0.7-1.1 1.5-0.1 0.7-0.3 1.7-0.1 0.7-0.7 1.5-0.5 0.7-2 1.6-2.4-1.5-3.1-3.8-0.7-2.3-0.7-5.1 0-2.8 0.2-5.8 0.2-3.2-0.6-6.3h-4.2q-0.7 0.9-2.5 1.1-1.7 0.1-3.5 0.5-1.6 0.3-3 1.4-1.4 0.9-1.4 3.3 0.8 6.3 0.2 12.9-0.4 6.4-1 12.9-0.5 6.5-0.7 12.6-0.1 6.2 1.5 11.5 0.8 2.4 1.4 5.9 0.6 3.4 2 6.1 1.3 2.8 3.9 3.9 2.5 1.1 7.3-1.1 4.5 0 5.3-2.9 0.7-2.9 0.7-7.6-0.7-4-0.7-8.4 0-4.7 0.6-9.4 0.5-4.6 1.6-9.1 1.1-4.5 2.7-8.4 2.4-3.1 5.4-5.8 3-2.8 6.3-4.8 3.5-2.3 6.9-3.8 3.5-1.7 6.6-2.4 0-5.7-2-8.3-1.7-2.5-4.6-2.7-2.9-0.1-6.3 1.7-3.3 1.6-6.3 4.2-3 2.6-5.3 5.7-2.2 3.1-2.6 5.7zm31.1-10.5v8.4q-1.6 1.6-3.1 4.5-1.5 2.7-3.1 5.8-3.9 0-7.4 1.8-3.4 1.9-6.4 4.5-2.9 2.7-5.3 6-2.4 3.4-3.9 6.5 0 2.4-0.6 5.1-0.6 2.7-1 5.4-0.3 2.7-0.2 5.4 0.2 2.5 1.8 4.9-1.6 0.8-1.6 2.6 0.1 1.6 0.3 3.4 0.3 1.7-0.2 3-0.3 1.4-2.7 1.4-1.5 1.6-2.4 3.5-0.9 1.7-1.9 3.4-0.9 1.5-2.3 2.6-1.3 1-3.6 1-2.4 0-5.1-0.3-2.5-0.3-5.4-0.5-2.7-0.2-5.4-0.1-2.5 0.1-5 0.9v-2.1q0.8-6.3 0.4-12.2-0.5-5.8-1.1-11.6-0.6-5.9-0.8-11.8-0.1-6 1.5-12.3v-20.8l8.3-12.6q4.8-1.5 10.5-2.9 5.7-1.3 10.5-1.3v16.8q1.5-3.2 4.5-6.7 3.2-3.7 6.9-6.7 3.8-3 7.7-4.9 4-1.9 7.5-1.8 3.4 0.1 5.6 2.9 2.5 2.7 3 8.8zm43 33.3q-2.4-0.8-3.1 0.3-0.6 0.9-0.5 2.7 0.3 1.8 0.9 4.1 0.6 2 0.6 3.5 3.1-0.7 7.1-0.9 3.9-0.1 7.8-0.1 4 0 7.9-0.2 3.9-0.1 7.1-0.8 1.6-3.4 3.1-5.5 1.6-2 3.3-5.2-8.1 0-17.1 1-9 1.1-17.1 1.1zm-27.7-12.9q-4.8 4-6.8 9.5-2 5.3-2.1 11.2-0.1 5.7 0.8 11.6 0.8 5.6 1.6 10.5 9.6 12.8 21 18.7 11.6 5.9 26 2.7 3.2-1.7 6.1-4.5 3-3 4.6-6.2-7.1 1.7-14.6 1.3-7.5-0.5-14.6-2.9-6.9-2.4-13.2-6.7-6.3-4.5-11.1-11-2.4-4-2.7-8.2-0.1-4.4 0.6-8.7 0.8-4.5 2.1-8.9 1.4-4.4 2.3-8.4zm25.6-6.3l2.1 4.2h4.2q-1.7-1.6-3.2-2.9-1.5-1.3-3.1-1.3zm4.2-2.2l4.4 4.3q1.5 0.7 2 0.6 0.7-0.3 0.8-1.1 0.3-0.8 0.5-1.9 0.1-1.1 0.9-1.9 0-1.5-1.4-2.3-1.3-0.9-3-0.9-1.5 0-2.8 0.9-1.4 0.8-1.4 2.3zm10.7-2.2v10.7q-2.4 0-4.8 0.6-2.3 0.6-4.5 1.1-2.3 0.4-4.2 0.3-2-0.3-3.6-2-0.8-2.4-0.5-4.7 0.3-2.3 1.2-4.3 1.1-2.1 2.6-3.6 1.5-1.5 3.1-2.4 1.7-0.7 3.4-0.7 2-0.2 3.5 0.4 1.7 0.6 2.7 1.8 1.1 1.2 1.1 2.8zm-19.3-12.8q-7.9 4-12 10.2-4 6.1-5.8 13.5-1.8 7.1-2.2 15-0.5 7.6-1.2 14.8 0.7 3.2 2.8 6 2.3 2.7 5.1 4.9 2.8 2.3 5.8 4 3 1.5 5.5 2.2 4.8 1.7 9.4 2.7 4.8 1.1 9.5 1.4 4.6 0.1 9-0.8 4.3-0.9 8.4-3.3 0.7-1.7 0.9-2.8 0.1-1.4-0.2-2.6-0.1-1.2-0.5-2.4-0.2-1.2-0.2-2.9-1.7 1.7-3.9 2.5-2.3 0.7-5 1-2.5 0.1-5.2-0.1-2.7-0.5-5.2-1.3-4.7-1.6-9.1-4.7-4.2-3.4-5.9-8.1 0-1.5-0.2-3.5-0.3-1.9-0.6-3.9-0.2-2.1 0-3.9 0.1-1.9 0.8-3.6 5.6 0 11.2-0.6 5.7-0.7 11.2-1.5 5.7-0.9 11.3-1.5 5.7-0.7 11.2-0.7-0.7-1.5-1.2-3.5-0.4-2-0.9-3.9-0.4-2.1-0.9-4.1-0.4-1.9-1.2-3.5-2.4-7.2-7.3-11-4.9-3.9-10.7-5.2-5.7-1.5-11.8-1-6 0.7-10.9 2.2zm34.3 0q4 3.1 6.1 7.2 2.3 3.8 3.6 8.1 1.5 4.2 2.5 8.5 1.1 4.2 2.8 8.2 0 1-0.5 1.4-0.3 0.3-0.6 0.6-0.6 0.3-1 0.3-3.2 1.7-5.2 4.5-1.9 2.7-3.7 5.1-1.8 2.4-4.2 3.6-2.2 1.2-6.3-0.5-4.8 1.7-10.9 2-6 0.2-12.5 0.2 0 2.3 1.1 3.8 1 1.4 2.5 2.4 1.7 1 3.5 2 1.9 0.9 3.5 2.5 2.5 0 5.2 0.4 2.7 0.1 5.2 0 2.7-0.4 5-1.3 2.2-1 3.9-3.4 1.6 0 2.1 0.4 0.6 0.4 0.7 0.9 0.3 0.6 0.4 1.4 0.2 0.7 1.1 1.6-0.9 2.5-0.4 5.1 0.4 2.6 0.6 5 0.2 2.4-0.6 4.4-0.8 1.8-3.9 2.6-3.2 4.9-6.5 8.3-3.1 3.5-6.3 6.6-7.2 1.6-14.1 0.8-6.7-1.1-13-3.9-6.2-2.9-11.7-7.1-5.6-4.2-10.4-9-2.4-4-3.4-8.4-0.9-4.4-1.2-8.9-0.2-4.6 0-9.4 0.3-4.8 0.3-9.6 3.3-8.1 9.1-17.1 5.9-9 12.3-17.1 1.5 0.8 2.7 0.5 1.4-0.4 2.3-1.1 1-0.8 1.9-1.8 0.9-1.2 1.7-2 4-1.5 8.7-2.2 4.6-0.9 9.4-0.6 4.8 0.2 9.4 1.3 4.7 1.2 8.8 3.7z"/>
	</g>
</svg>